<svg width="34" height="34" viewBox="0 0 34 34" fill="none" xmlns="http://www.w3.org/2000/svg">
<path d="M24.5 2H9.5C5.35786 2 2 5.35786 2 9.5V24.5C2 28.6421 5.35786 32 9.5 32H24.5C28.6421 32 32 28.6421 32 24.5V9.5C32 5.35786 28.6421 2 24.5 2Z" stroke="white" stroke-width="3" stroke-linecap="round" stroke-linejoin="round"/>
<path d="M22.9998 16.055C23.1849 17.3033 22.9717 18.5783 22.3904 19.6985C21.8092 20.8187 20.8895 21.7271 19.7622 22.2945C18.635 22.8619 17.3575 23.0594 16.1115 22.8589C14.8655 22.6584 13.7144 22.0701 12.8221 21.1777C11.9297 20.2853 11.3414 19.1343 11.1409 17.8883C10.9404 16.6423 11.1379 15.3648 11.7053 14.2375C12.2727 13.1102 13.1811 12.1906 14.3013 11.6093C15.4215 11.0281 16.6964 10.8148 17.9448 11C19.2182 11.1888 20.3971 11.7822 21.3073 12.6924C22.2176 13.6027 22.811 14.7816 22.9998 16.055Z" stroke="white" stroke-width="3" stroke-linecap="round" stroke-linejoin="round"/>
<path d="M25.25 8.75H25.2655" stroke="white" stroke-width="3" stroke-linecap="round" stroke-linejoin="round"/>
</svg>
