<svg width="30" height="30" viewBox="0 0 30 30" fill="none" xmlns="http://www.w3.org/2000/svg">
<g clip-path="url(#clip0_351_10)">
<rect width="30" height="30" rx="15" fill="#EFEFEF"/>
<path d="M15 18.9252C16.0796 18.9252 16.955 18.0499 16.955 16.9702V8.05648C16.955 6.97667 16.0796 6.10144 15 6.10144C13.9203 6.10144 13.0449 6.97667 13.0449 8.05648V16.9704C13.0449 18.05 13.9203 18.9252 15 18.9252Z" fill="#013453"/>
<path d="M15.0004 19.9894C14.4859 19.9894 13.9805 20.1974 13.6177 20.5618C13.2534 20.9247 13.0454 21.4283 13.0454 21.9429C13.0454 22.4574 13.2534 22.9626 13.6177 23.3255C13.9805 23.6899 14.4859 23.8979 15.0004 23.8979C15.515 23.8979 16.0186 23.6899 16.3831 23.3255C16.7458 22.9626 16.9555 22.4574 16.9555 21.9429C16.9555 21.4283 16.7458 20.9247 16.3831 20.5618C16.0186 20.1974 15.515 19.9894 15.0004 19.9894Z" fill="#013453"/>
<path d="M15 0C6.72909 0 0 6.72893 0 15C0 23.2711 6.72893 30 15 30C23.2711 30 29.9998 23.2711 29.9998 15C29.9998 6.72893 23.2711 0 15 0ZM15 27.654C8.02254 27.654 2.34605 21.9775 2.34605 15C2.34605 8.02254 8.02254 2.34605 15 2.34605C21.9773 2.34605 27.6538 8.02254 27.6538 15C27.6538 21.9775 21.9775 27.654 15 27.654Z" fill="#013453"/>
</g>
<defs>
<clipPath id="clip0_351_10">
<rect width="30" height="30" rx="15" fill="white"/>
</clipPath>
</defs>
</svg>
