<svg width="34" height="30" viewBox="0 0 34 30" fill="none" xmlns="http://www.w3.org/2000/svg">
<path d="M32 2.01457C30.6942 2.99332 29.2483 3.74191 27.7182 4.23151C26.8969 3.2281 25.8055 2.51692 24.5914 2.19414C23.3774 1.87135 22.0993 1.95255 20.9301 2.42674C19.7609 2.90093 18.757 3.74523 18.0541 4.84546C17.3512 5.94569 16.9832 7.24877 17 8.57844V10.0274C14.6036 10.0934 12.229 9.5287 10.0877 8.38347C7.94647 7.23825 6.10498 5.5481 4.72727 3.46355C4.72727 3.46355 -0.727272 16.5043 11.5455 22.3003C8.73708 24.3259 5.39158 25.3416 2 25.1982C14.2727 32.4431 29.2727 25.1982 29.2727 8.53497C29.2715 8.13136 29.235 7.72875 29.1636 7.33232C30.5554 5.87391 31.5375 4.03258 32 2.01457Z" stroke="black" stroke-width="3" stroke-linecap="round" stroke-linejoin="round"/>
</svg>
