<svg width="120" height="56" viewBox="0 0 120 56" fill="none" xmlns="http://www.w3.org/2000/svg">
<path d="M43.688 46.96C40.328 46.96 37.24 46.144 34.424 44.512C31.608 42.848 29.368 40.576 27.704 37.696C26.072 34.784 25.256 31.52 25.256 27.904C25.256 24.416 26.104 21.232 27.8 18.352C29.528 15.472 31.816 13.2 34.664 11.536C37.544 9.872 40.6 9.04 43.832 9.04C46.072 9.04 47.848 9.248 49.16 9.664C50.472 10.048 51.992 10.736 53.72 11.728V13.504C52.088 12.384 50.568 11.6 49.16 11.152C47.784 10.672 46.056 10.432 43.976 10.432C40.808 10.432 37.912 11.248 35.288 12.88C32.696 14.48 30.632 16.64 29.096 19.36C27.592 22.048 26.84 24.944 26.84 28.048C26.84 31.184 27.608 34.096 29.144 36.784C30.68 39.472 32.712 41.616 35.24 43.216C37.8 44.784 40.552 45.568 43.496 45.568C45.608 45.568 47.448 45.328 49.016 44.848C50.584 44.336 52.152 43.552 53.72 42.496V44.272C52.184 45.2 50.6 45.872 48.968 46.288C47.368 46.736 45.608 46.96 43.688 46.96ZM69.1085 46.768C66.9325 46.768 64.9645 46.24 63.2045 45.184C61.4445 44.096 60.0685 42.672 59.0765 40.912C58.0845 39.12 57.5885 37.184 57.5885 35.104C57.5885 33.056 58.0845 31.152 59.0765 29.392C60.1005 27.632 61.4765 26.24 63.2045 25.216C64.9645 24.16 66.9165 23.632 69.0605 23.632C71.1725 23.632 73.0925 24.16 74.8205 25.216C76.5805 26.24 77.9565 27.632 78.9485 29.392C79.9405 31.152 80.4365 33.056 80.4365 35.104C80.4365 37.248 79.9565 39.216 78.9965 41.008C78.0365 42.768 76.6925 44.176 74.9645 45.232C73.2685 46.256 71.3165 46.768 69.1085 46.768ZM69.1085 45.424C70.9325 45.424 72.5965 44.96 74.1005 44.032C75.6045 43.104 76.7725 41.872 77.6045 40.336C78.4685 38.768 78.9005 37.056 78.9005 35.2C78.9005 33.376 78.4685 31.68 77.6045 30.112C76.7405 28.544 75.5565 27.296 74.0525 26.368C72.5485 25.44 70.8845 24.976 69.0605 24.976C67.2365 24.976 65.5565 25.456 64.0205 26.416C62.5165 27.344 61.3165 28.592 60.4205 30.16C59.5565 31.728 59.1245 33.424 59.1245 35.248C59.1245 37.072 59.5565 38.768 60.4205 40.336C61.3165 41.872 62.5165 43.104 64.0205 44.032C65.5565 44.96 67.2525 45.424 69.1085 45.424ZM84.7584 24.4H86.2944V29.392C86.9344 27.824 87.8624 26.592 89.0784 25.696C90.3264 24.8 91.7344 24.352 93.3024 24.352C94.2944 24.352 95.3024 24.56 96.3264 24.976V26.752C95.3984 26.048 94.3584 25.696 93.2064 25.696C92.0544 25.696 90.9344 26.048 89.8464 26.752C88.7904 27.456 87.9264 28.4 87.2544 29.584C86.6144 30.768 86.2944 32.032 86.2944 33.376V46H84.7584V24.4ZM109.192 45.232C110.856 45.232 112.44 44.8 113.944 43.936C115.448 43.072 116.696 41.888 117.688 40.384V42.832C116.504 44.144 115.208 45.104 113.8 45.712C112.392 46.288 110.792 46.576 109 46.576C107.016 46.576 105.144 46.048 103.384 44.992C101.656 43.936 100.264 42.528 99.2083 40.768C98.1843 39.008 97.6723 37.136 97.6723 35.152C97.6723 33.008 98.1843 31.088 99.2083 29.392C100.232 27.664 101.624 26.32 103.384 25.36C105.176 24.4 107.16 23.92 109.336 23.92C112.664 23.92 115.496 25.232 117.832 27.856L102.76 42.736C103.816 43.6 104.84 44.24 105.832 44.656C106.824 45.04 107.944 45.232 109.192 45.232ZM99.2083 35.008C99.2083 37.664 100.088 39.936 101.848 41.824L115.912 27.856C114.856 26.928 113.832 26.272 112.84 25.888C111.848 25.472 110.664 25.264 109.288 25.264C107.336 25.264 105.592 25.696 104.056 26.56C102.552 27.392 101.368 28.544 100.504 30.016C99.6403 31.488 99.2083 33.152 99.2083 35.008Z" fill="white"/>
<path d="M2.12216 46V42.0114L11.4418 33.3821C12.2344 32.6151 12.8991 31.9247 13.4361 31.3111C13.9815 30.6974 14.3949 30.0966 14.6761 29.5085C14.9574 28.9119 15.098 28.2685 15.098 27.5781C15.098 26.8111 14.9233 26.1506 14.5739 25.5966C14.2244 25.0341 13.7472 24.6037 13.142 24.3054C12.5369 23.9986 11.8509 23.8452 11.0838 23.8452C10.2827 23.8452 9.58381 24.0071 8.98722 24.331C8.39063 24.6548 7.9304 25.1193 7.60653 25.7244C7.28267 26.3295 7.12074 27.0497 7.12074 27.8849H1.86648C1.86648 26.1719 2.25426 24.6847 3.02983 23.4233C3.8054 22.1619 4.89205 21.1861 6.28977 20.4957C7.6875 19.8054 9.2983 19.4602 11.1222 19.4602C12.9972 19.4602 14.6293 19.7926 16.0185 20.4574C17.4162 21.1136 18.5028 22.0256 19.2784 23.1932C20.054 24.3608 20.4418 25.6989 20.4418 27.2074C20.4418 28.196 20.2457 29.1719 19.8537 30.1349C19.4702 31.098 18.7841 32.1676 17.7955 33.3438C16.8068 34.5114 15.4134 35.9134 13.6151 37.5497L9.79261 41.2955V41.4744H20.7869V46H2.12216Z" fill="white"/>
</svg>
